<?xml version="1.0" encoding="utf-8"?>
<!-- Generator: Adobe Illustrator 24.3.0, SVG Export Plug-In . SVG Version: 6.00 Build 0)  -->
<svg version="1.1" id="Layer_4" xmlns="http://www.w3.org/2000/svg" xmlns:xlink="http://www.w3.org/1999/xlink" x="0px" y="0px"
	 width="3000px" height="2500px" viewBox="0 0 3000 2500" enable-background="new 0 0 3000 2500" xml:space="preserve">
<rect x="-125.9" y="-105" fill="#FFFFFF" width="3251.9" height="2709.9"/>
<g>
	<g>
		<defs>
			<filter id="Adobe_OpacityMaskFilter" filterUnits="userSpaceOnUse" x="780.7" y="1746.1" width="1291.5" height="736.5">
				<feFlood  style="flood-color:white;flood-opacity:1" result="back"/>
				<feBlend  in="SourceGraphic" in2="back" mode="normal"/>
			</filter>
		</defs>
		<mask maskUnits="userSpaceOnUse" x="780.7" y="1746.1" width="1291.5" height="736.5" id="SVGID_1_">
			<g filter="url(#Adobe_OpacityMaskFilter)">
				<defs>
					<filter id="Adobe_OpacityMaskFilter_1_" filterUnits="userSpaceOnUse" x="780.7" y="1746.1" width="1291.5" height="736.5">
						<feFlood  style="flood-color:white;flood-opacity:1" result="back"/>
						<feBlend  in="SourceGraphic" in2="back" mode="normal"/>
					</filter>
				</defs>
				<mask maskUnits="userSpaceOnUse" x="780.7" y="1746.1" width="1291.5" height="736.5" id="SVGID_1_">
					<g filter="url(#Adobe_OpacityMaskFilter_1_)">
					</g>
				</mask>
				<linearGradient id="SVGID_2_" gradientUnits="userSpaceOnUse" x1="1462.1415" y1="2186.4668" x2="1577.2214" y2="2428.832">
					<stop  offset="0" style="stop-color:#FFFFFF"/>
					<stop  offset="1" style="stop-color:#000000"/>
				</linearGradient>
				<polygon mask="url(#SVGID_1_)" fill="url(#SVGID_2_)" points="1513.1,2482.7 2072.2,2168.7 1328.8,1746.1 780.7,2053.8 				"/>
			</g>
		</mask>
		<linearGradient id="SVGID_3_" gradientUnits="userSpaceOnUse" x1="1462.1415" y1="2186.4668" x2="1577.2214" y2="2428.832">
			<stop  offset="0" style="stop-color:#303030"/>
			<stop  offset="1" style="stop-color:#727272"/>
		</linearGradient>
		<polygon opacity="0.2" fill="url(#SVGID_3_)" points="1513.1,2482.7 2072.2,2168.7 1328.8,1746.1 780.7,2053.8 		"/>
		<polygon fill="#F2F2F2" points="1234,2246 1782.1,1938.3 1328.8,1673.1 780.7,1980.8 		"/>
		<polygon fill="#DEDFE0" points="1234,2311.3 1234,2246 1782.1,1938.3 1782.1,2003.6 		"/>
		<polygon fill="#B7B7B7" points="780.7,1980.8 780.7,2046.1 1234,2311.3 1234,2246 		"/>
	</g>
	<g>
		<polygon fill="#078D93" points="2273.1,596.5 1425.4,121.6 1425.4,1550.7 2235.6,2049.7 2273.1,2025.7 		"/>
		<linearGradient id="SVGID_4_" gradientUnits="userSpaceOnUse" x1="2105.1094" y1="463.2076" x2="1577.5868" y2="1604.2173">
			<stop  offset="0" style="stop-color:#82FB7C"/>
			<stop  offset="1" style="stop-color:#0BA2B3"/>
		</linearGradient>
		<polygon fill="url(#SVGID_4_)" points="2235.6,620.5 1388,145.6 1388,1574.8 2235.6,2049.7 		"/>
		<polygon fill="#FFFFFF" points="1422.4,1554.6 1422.4,369.1 2201.2,805.4 2201.2,1990.9 		"/>
		<linearGradient id="SVGID_5_" gradientUnits="userSpaceOnUse" x1="1858.2181" y1="360.7982" x2="1774.7211" y2="541.399">
			<stop  offset="0" style="stop-color:#82FB7C"/>
			<stop  offset="1" style="stop-color:#0BA2B3"/>
		</linearGradient>
		<polygon fill="url(#SVGID_5_)" points="1388,301.9 2235.6,776.8 2235.6,620.5 1388,145.6 		"/>
		<polygon fill="#FFFFFF" points="2133.9,613.8 2133.9,688.7 2001.3,614.5 1641.1,412.7 1641.1,337.6 2001.3,539.5 		"/>
		<linearGradient id="SVGID_6_" gradientUnits="userSpaceOnUse" x1="2001.2787" y1="614.1238" x2="2133.8674" y2="614.1238">
			<stop  offset="0" style="stop-color:#FFBC00"/>
			<stop  offset="1" style="stop-color:#FF9A21"/>
		</linearGradient>
		<polygon fill="url(#SVGID_6_)" points="2133.9,613.8 2133.9,688.7 2001.3,614.5 2001.3,539.5 		"/>
		<g>
			<path fill="#FBFBFB" d="M1522.1,309.4l-94.6-52.7c-2.7-1.5-4.9-4.9-4.9-7.6l0,0c0-2.7,2.2-3.7,4.9-2.2l94.6,52.7
				c2.7,1.5,4.9,4.9,4.9,7.6l0,0C1527,309.9,1524.8,310.9,1522.1,309.4z"/>
			<path fill="#FBFBFB" d="M1611.2,382l-183.7-102.3c-2.7-1.5-4.9-4.9-4.9-7.6v0c0-2.7,2.2-3.7,4.9-2.2l183.7,102.3
				c2.7,1.5,4.9,4.9,4.9,7.6l0,0C1616.1,382.5,1613.9,383.5,1611.2,382z"/>
		</g>
		<path fill="#CACACA" d="M1862.3,504.5l-183.7-102.3c-2.7-1.5-4.9-4.9-4.9-7.6l0,0c0-2.7,2.2-3.7,4.9-2.2l183.7,102.3
			c2.7,1.5,4.9,4.9,4.9,7.6l0,0C1867.2,505,1865,506,1862.3,504.5z"/>
		<polygon fill="#BBFFC3" points="2273.1,596.5 2235.6,620.5 1388,145.6 1425.4,121.6 		"/>
	</g>
	<g>
		<g>
			<polygon fill="none" stroke="#CCCCCC" stroke-width="4.2612" stroke-miterlimit="10" points="2162.7,1160.3 1460.9,768.6 
				1460.9,688.7 2162.7,1080.5 			"/>
			<path fill="#CCCCCC" d="M1681.8,737.4l-215.5-120.3c-2.9-1.6-5.3-5.4-5.3-8.3l0,0c0-2.9,2.4-4,5.3-2.4l215.5,120.3
				c2.9,1.6,5.3,5.4,5.3,8.3l0,0C1687.1,738,1684.7,739.1,1681.8,737.4z"/>
			<path fill="#CCCCCC" d="M1983,785.5L1681.1,617c-4.1-2.3-7.5-7.5-7.5-11.7l0,0c0-4.1,3.4-5.6,7.5-3.3L1983,770.6
				c4.1,2.3,7.5,7.5,7.5,11.7l0,0C1990.5,786.3,1987.1,787.8,1983,785.5z"/>
			<path fill="#CCCCCC" d="M2157.4,1195.3L1941.8,1075c-2.9-1.6-5.3-5.4-5.3-8.3l0,0c0-2.9,2.4-4,5.3-2.4l215.5,120.3
				c2.9,1.6,5.3,5.4,5.3,8.3l0,0C2162.7,1195.8,2160.3,1196.9,2157.4,1195.3z"/>
			<path fill="#CCCCCC" d="M1784.7,822.2l-318.4-177.7c-2.9-1.6-5.3-5.4-5.3-8.3l0,0c0-2.9,2.4-4,5.3-2.4l318.4,177.7
				c2.9,1.6,5.3,5.4,5.3,8.3l0,0C1790,822.7,1787.6,823.8,1784.7,822.2z"/>
		</g>
		<g>
			<polygon fill="none" stroke="#CCCCCC" stroke-width="4.2612" stroke-miterlimit="10" points="2162.7,1435.4 1460.9,1043.6 
				1460.9,963.8 2162.7,1355.5 			"/>
			<path fill="#CCCCCC" d="M1681.8,1012.5l-215.5-120.3c-2.9-1.6-5.3-5.4-5.3-8.3l0,0c0-2.9,2.4-4,5.3-2.4l215.5,120.3
				c2.9,1.6,5.3,5.4,5.3,8.3v0C1687.1,1013,1684.7,1014.1,1681.8,1012.5z"/>
			<path fill="#CCCCCC" d="M2157.4,1470.3L1941.8,1350c-2.9-1.6-5.3-5.4-5.3-8.3l0,0c0-2.9,2.4-4,5.3-2.4l215.5,120.3
				c2.9,1.6,5.3,5.4,5.3,8.3l0,0C2162.7,1470.9,2160.3,1472,2157.4,1470.3z"/>
			<path fill="#CCCCCC" d="M1784.7,1097.2l-318.4-177.7c-2.9-1.6-5.3-5.4-5.3-8.3l0,0c0-2.9,2.4-4,5.3-2.4l318.4,177.7
				c2.9,1.6,5.3,5.4,5.3,8.3l0,0C1790,1097.8,1787.6,1098.9,1784.7,1097.2z"/>
		</g>
		<g>
			<polygon fill="none" stroke="#CCCCCC" stroke-width="4.2612" stroke-miterlimit="10" points="2162.7,1710.4 1460.9,1318.7 
				1460.9,1238.8 2162.7,1630.6 			"/>
			<path fill="#CCCCCC" d="M1681.8,1287.5l-215.5-120.3c-2.9-1.6-5.3-5.4-5.3-8.3l0,0c0-2.9,2.4-4,5.3-2.4l215.5,120.3
				c2.9,1.6,5.3,5.4,5.3,8.3v0C1687.1,1288.1,1684.7,1289.2,1681.8,1287.5z"/>
			<path fill="#CCCCCC" d="M2157.4,1745.4l-215.5-120.3c-2.9-1.6-5.3-5.4-5.3-8.3l0,0c0-2.9,2.4-4,5.3-2.4l215.5,120.3
				c2.9,1.6,5.3,5.4,5.3,8.3l0,0C2162.7,1745.9,2160.3,1747,2157.4,1745.4z"/>
			<path fill="#CCCCCC" d="M1784.7,1372.3l-318.4-177.7c-2.9-1.6-5.3-5.4-5.3-8.3l0,0c0-2.9,2.4-4,5.3-2.4l318.4,177.7
				c2.9,1.6,5.3,5.4,5.3,8.3l0,0C1790,1372.9,1787.6,1373.9,1784.7,1372.3z"/>
		</g>
	</g>
	<g>
		<g>
			<polygon fill="#B6C3CE" points="1317.6,513.2 892.2,268.6 873.1,280.9 1298.6,525.5 			"/>
			<polygon fill="#8AA1B7" points="873.1,280.9 873.1,763 1298.6,1007.5 1298.6,525.5 			"/>
			<polygon fill="#047096" points="1317.6,513.2 1317.6,995.3 1298.6,1007.5 1298.6,525.5 			"/>
		</g>
		<g>
			<g>
				<path fill="#FFFFFF" d="M1110.8,709.8l-163.3-90.4c-2.7-1.5-4.9-4.9-4.9-7.6l0,0c0-2.7,2.2-3.7,4.9-2.2l163.3,90.4
					c2.7,1.5,4.9,4.9,4.9,7.6l0,0C1115.7,710.3,1113.5,711.3,1110.8,709.8z"/>
				<path fill="#FFFFFF" d="M1201.5,789l-254-140.6c-2.7-1.5-4.9-4.9-4.9-7.6l0,0c0-2.7,2.2-3.7,4.9-2.2l254,140.6
					c2.7,1.5,4.9,4.9,4.9,7.6l0,0C1206.4,789.5,1204.2,790.5,1201.5,789z"/>
			</g>
			<g>
				<path fill="#FFFFFF" d="M1110.8,778.4L947.5,688c-2.7-1.5-4.9-4.9-4.9-7.6l0,0c0-2.7,2.2-3.7,4.9-2.2l163.3,90.4
					c2.7,1.5,4.9,4.9,4.9,7.6l0,0C1115.7,778.9,1113.5,779.9,1110.8,778.4z"/>
				<path fill="#FFFFFF" d="M1201.5,857.7L947.5,717c-2.7-1.5-4.9-4.9-4.9-7.6l0,0c0-2.7,2.2-3.7,4.9-2.2l254,140.6
					c2.7,1.5,4.9,4.9,4.9,7.6l0,0C1206.4,858.2,1204.2,859.1,1201.5,857.7z"/>
			</g>
		</g>
		<linearGradient id="SVGID_7_" gradientUnits="userSpaceOnUse" x1="1095.1819" y1="487.2327" x2="1062.798" y2="643.6526">
			<stop  offset="0" style="stop-color:#82FB7C"/>
			<stop  offset="1" style="stop-color:#0BA2B3"/>
		</linearGradient>
		<path fill="url(#SVGID_7_)" d="M1002.1,441.9l0,145.1c0,8.7,4.7,16.8,12.2,21.1l130.2,74.8c6.4,3.7,14.3-0.9,14.3-8.3l0-150
			c0-6.9-3.7-13.2-9.6-16.6l-131.2-75.4C1011,428.6,1002.1,433.7,1002.1,441.9z"/>
		<polygon fill="#FFFFFF" points="1029.2,515.9 1047.5,591.7 1137.5,563.4 1129.5,542.4 1063.4,563.7 1049.4,511 		"/>
	</g>
	<g>
		<g>
			<g>
				<polygon fill="#FFD371" points="2537.3,1021.4 2111.9,776.8 2092.8,789.1 2518.3,1033.7 				"/>
				<linearGradient id="SVGID_8_" gradientUnits="userSpaceOnUse" x1="2092.793" y1="1152.4437" x2="2518.2759" y2="1152.4437">
					<stop  offset="0" style="stop-color:#FFBC00"/>
					<stop  offset="1" style="stop-color:#FF9A21"/>
				</linearGradient>
				<polygon fill="url(#SVGID_8_)" points="2092.8,789.1 2092.8,1271.2 2518.3,1515.8 2518.3,1033.7 				"/>
				<polygon fill="#E58010" points="2537.3,1021.4 2537.4,1503.5 2518.3,1515.8 2518.3,1033.7 				"/>
			</g>
		</g>
		<g>
			<g>
				<linearGradient id="SVGID_9_" gradientUnits="userSpaceOnUse" x1="2194.1045" y1="1110.585" x2="2376.7192" y2="1110.585">
					<stop  offset="0" style="stop-color:#82FB7C"/>
					<stop  offset="1" style="stop-color:#0BA2B3"/>
				</linearGradient>
				<path fill="url(#SVGID_9_)" d="M2340,1180.2c-11.1,4-26,2-42.2-7c-15.7-8.6-30.1-22.3-41-38c-13.3-18.8-21.7-40.3-21.7-59.2
					c0-34.6,28-47.2,62.7-28.2c9.6,5.3,18.7,12.5,26.9,20.9l23.9-20.6c-15-16.8-32.4-31.2-50.8-41.4
					c-57.4-31.5-103.8-10.7-103.8,46.6c0,33.4,15.7,71.8,40.3,104.4c17.5,23.3,39.5,43.5,63.5,56.6c31.6,17.4,59.9,18.9,78.8,7
					L2340,1180.2z"/>
				<path fill="#FFFFFF" d="M2401.7,1167.8c0,25.7-9.4,44.1-24.9,53.6l-36.7-41.2c12.6-4.6,20.5-16.7,20.5-35.1
					c0-25-14.6-54.6-35.8-76.3l24-20.7C2380.3,1083.3,2401.7,1128.9,2401.7,1167.8z"/>
			</g>
			<g opacity="0.76">
				<path fill="#FFFFFF" d="M2365.6,1290.5l-138.3-75c-2.6-1.4-4.8-4.8-4.9-7.4l0,0c0-2.6,2.1-3.6,4.8-2.2l138.3,75
					c2.6,1.4,4.8,4.8,4.9,7.4l0,0C2370.4,1291,2368.2,1291.9,2365.6,1290.5z"/>
				<path fill="#FFFFFF" d="M2365.8,1318.8l-138.3-75c-2.6-1.4-4.8-4.8-4.9-7.4v0c0-2.6,2.1-3.6,4.8-2.2l138.3,75
					c2.6,1.4,4.8,4.8,4.9,7.4l0,0C2370.6,1319.3,2368.4,1320.2,2365.8,1318.8z"/>
			</g>
		</g>
	</g>
	<g>
		<g>
			<g>
				<polygon fill="#64BCF9" points="907.2,859.8 481.7,615.3 462.6,627.6 888.1,872.1 				"/>
				<linearGradient id="SVGID_10_" gradientUnits="userSpaceOnUse" x1="634.6746" y1="728.8665" x2="713.025" y2="1233.1218">
					<stop  offset="0" style="stop-color:#299CFC"/>
					<stop  offset="1" style="stop-color:#0B5DA0"/>
				</linearGradient>
				<polygon opacity="0.72" fill="url(#SVGID_10_)" points="462.6,627.6 462.6,1109.7 888.1,1354.2 888.1,872.1 				"/>
				<polygon fill="#0B5DA0" points="907.2,859.8 907.2,1341.9 888.1,1354.2 888.1,872.1 				"/>
			</g>
		</g>
		<g>
			<g>
				<polygon fill="none" stroke="#FFFFFF" stroke-width="1.7932" stroke-miterlimit="10" points="800.9,993.4 505.5,828.5 
					505.5,794.9 800.9,959.8 				"/>
				<path fill="#FFFFFF" d="M598.5,815.4l-90.7-50.6c-1.2-0.7-2.2-2.3-2.2-3.5l0,0c0-1.2,1-1.7,2.2-1l90.7,50.6
					c1.2,0.7,2.2,2.3,2.2,3.5l0,0C600.7,815.6,599.7,816.1,598.5,815.4z"/>
				<path fill="#FFFFFF" d="M725.2,835.6l-127-70.9c-1.7-1-3.1-3.2-3.1-4.9l0,0c0-1.7,1.4-2.4,3.1-1.4l127,70.9
					c1.7,1,3.1,3.2,3.1,4.9l0,0C728.4,836,727,836.6,725.2,835.6z"/>
				<path fill="#FFFFFF" d="M798.6,1008.1l-90.7-50.6c-1.2-0.7-2.2-2.3-2.2-3.5l0,0c0-1.2,1-1.7,2.2-1l90.7,50.6
					c1.2,0.7,2.2,2.3,2.2,3.5l0,0C800.9,1008.3,799.8,1008.8,798.6,1008.1z"/>
				<path fill="#FFFFFF" d="M641.8,851.1l-134-74.8c-1.2-0.7-2.2-2.3-2.2-3.5l0,0c0-1.2,1-1.7,2.2-1l134,74.8
					c1.2,0.7,2.2,2.3,2.2,3.5l0,0C644,851.3,643,851.8,641.8,851.1z"/>
			</g>
			<g>
				<polygon fill="none" stroke="#FFFFFF" stroke-width="1.7932" stroke-miterlimit="10" points="800.9,1109.1 505.5,944.3 
					505.5,910.7 800.9,1075.5 				"/>
				<path fill="#FFFFFF" d="M598.5,931.2l-90.7-50.6c-1.2-0.7-2.2-2.3-2.2-3.5l0,0c0-1.2,1-1.7,2.2-1l90.7,50.6
					c1.2,0.7,2.2,2.3,2.2,3.5l0,0C600.7,931.4,599.7,931.8,598.5,931.2z"/>
				<path fill="#FFFFFF" d="M798.6,1123.8l-90.7-50.6c-1.2-0.7-2.2-2.3-2.2-3.5l0,0c0-1.2,1-1.7,2.2-1l90.7,50.6
					c1.2,0.7,2.2,2.3,2.2,3.5l0,0C800.9,1124.1,799.8,1124.5,798.6,1123.8z"/>
				<path fill="#FFFFFF" d="M641.8,966.8l-134-74.8c-1.2-0.7-2.2-2.3-2.2-3.5l0,0c0-1.2,1-1.7,2.2-1l134,74.8
					c1.2,0.7,2.2,2.3,2.2,3.5l0,0C644,967.1,643,967.5,641.8,966.8z"/>
			</g>
			<g>
				<polygon fill="none" stroke="#FFFFFF" stroke-width="1.7932" stroke-miterlimit="10" points="800.9,1224.9 505.5,1060 
					505.5,1026.4 800.9,1191.3 				"/>
				<path fill="#FFFFFF" d="M598.5,1046.9l-90.7-50.6c-1.2-0.7-2.2-2.3-2.2-3.5l0,0c0-1.2,1-1.7,2.2-1l90.7,50.6
					c1.2,0.7,2.2,2.3,2.2,3.5l0,0C600.7,1047.1,599.7,1047.6,598.5,1046.9z"/>
				<path fill="#FFFFFF" d="M798.6,1239.6l-90.7-50.6c-1.2-0.7-2.2-2.3-2.2-3.5l0,0c0-1.2,1-1.7,2.2-1l90.7,50.6
					c1.2,0.7,2.2,2.3,2.2,3.5l0,0C800.9,1239.8,799.8,1240.3,798.6,1239.6z"/>
				<path fill="#FFFFFF" d="M641.8,1082.6l-134-74.8c-1.2-0.7-2.2-2.3-2.2-3.5l0,0c0-1.2,1-1.7,2.2-1l134,74.8
					c1.2,0.7,2.2,2.3,2.2,3.5l0,0C644,1082.8,643,1083.3,641.8,1082.6z"/>
			</g>
		</g>
	</g>
	<g>
		
			<linearGradient id="SVGID_11_" gradientUnits="userSpaceOnUse" x1="1270.1553" y1="3566.4607" x2="1136.4291" y2="3665.4116" gradientTransform="matrix(0.8425 -5.990000e-02 5.990000e-02 0.8424 175.3419 -982.8082)">
			<stop  offset="0" style="stop-color:#303030"/>
			<stop  offset="1" style="stop-color:#727272"/>
		</linearGradient>
		<path fill="url(#SVGID_11_)" d="M1376.2,1951.6c0,0-36.7,104.2-3.5,108.6c33.2,4.4,64.2-22.4,64.7-58.8
			c0.4-36.4,5.1-54.5,5.1-54.5L1376.2,1951.6z"/>
		
			<linearGradient id="SVGID_12_" gradientUnits="userSpaceOnUse" x1="656.6432" y1="2018.4482" x2="523.0087" y2="2117.3315" gradientTransform="matrix(0.9975 -7.090000e-02 7.090000e-02 0.9975 413.1254 -94.6624)">
			<stop  offset="0" style="stop-color:#303030"/>
			<stop  offset="1" style="stop-color:#727272"/>
		</linearGradient>
		<path fill="url(#SVGID_12_)" d="M1135.2,1893.3c0,0-8.6,20.4-35.4,38.8c-26.8,18.5-41.8,40.5-8.7,52.1s56.1-25.7,87.3-41.9
			c31.1-16.3,32-51.1,17.9-62.5S1135.2,1893.3,1135.2,1893.3z"/>
		<linearGradient id="SVGID_13_" gradientUnits="userSpaceOnUse" x1="1255.6241" y1="1631.5712" x2="1135.7559" y2="1601.3014">
			<stop  offset="0" style="stop-color:#303030"/>
			<stop  offset="1" style="stop-color:#727272"/>
		</linearGradient>
		<path fill="url(#SVGID_13_)" d="M1204.1,1340.8c0,0-78.2,249.7-79.9,259c-1.6,9.2,8.7,282.4,8.7,282.4s-2.9,23,29,23
			c31.9,0,39.5-22.2,39.5-22.2s23-126,24.1-174s-0.3-70.7-0.3-70.7l160.9-256.6C1386.1,1381.7,1239.3,1305.2,1204.1,1340.8z"/>
		<linearGradient id="SVGID_14_" gradientUnits="userSpaceOnUse" x1="1452.8741" y1="1636.781" x2="1313.6334" y2="1647.6781">
			<stop  offset="0" style="stop-color:#303030"/>
			<stop  offset="1" style="stop-color:#727272"/>
		</linearGradient>
		<path fill="url(#SVGID_14_)" d="M1268.7,1390.7c0,0,54.9,291.8,72.7,320.6c17.8,28.8,27.8,227,27.8,227s8.4,29.6,44,22.7
			c35.6-6.8,33.7-14.2,33.7-14.2s13-51,8.2-139.5c-4.9-88.4-21.5-168.5-21.5-168.5l-9.4-172.6c0,0,44.9-93.4-12.5-135.1
			C1354.3,1289.5,1268.7,1390.7,1268.7,1390.7z"/>
		
			<linearGradient id="SVGID_15_" gradientUnits="userSpaceOnUse" x1="655.9854" y1="1240.2216" x2="696.2101" y2="1266.4144" gradientTransform="matrix(0.9975 -7.090000e-02 7.090000e-02 0.9975 413.1254 -94.6624)">
			<stop  offset="0" style="stop-color:#FFBC00"/>
			<stop  offset="1" style="stop-color:#FF9A21"/>
		</linearGradient>
		<path fill="url(#SVGID_15_)" d="M1231.8,962.8c0,0-114.6,198.8-126.8,211.7c-12.2,12.9-30.1,11.4-13.8,44
			c16.4,32.6,15.8,50.5,86.4-24.9C1248.3,1118.2,1277.5,995.3,1231.8,962.8z"/>
		
			<linearGradient id="SVGID_16_" gradientUnits="userSpaceOnUse" x1="706.0389" y1="1304.5057" x2="903.4236" y2="1356.8922" gradientTransform="matrix(0.9975 -7.090000e-02 7.090000e-02 0.9975 413.1254 -94.6624)">
			<stop  offset="0" style="stop-color:#FFBC00"/>
			<stop  offset="1" style="stop-color:#FF9A21"/>
		</linearGradient>
		<path fill="url(#SVGID_16_)" d="M1278.5,946.8c-23.4-9.7-70.7,13-71.9,97.7c-1.2,84.7-3.1,287.9-3.1,287.9s12.3,58.1,95.1,63
			s123.5-36,123.5-36s25.1-319.4,17-331.5C1430.9,1015.8,1278.5,946.8,1278.5,946.8z"/>
		
			<linearGradient id="SVGID_17_" gradientUnits="userSpaceOnUse" x1="931.0166" y1="1366.1151" x2="1013.3376" y2="1341.7931" gradientTransform="matrix(0.9975 -7.090000e-02 7.090000e-02 0.9975 413.1254 -94.6624)">
			<stop  offset="0" style="stop-color:#FFBC00"/>
			<stop  offset="1" style="stop-color:#FF9A21"/>
		</linearGradient>
		<path fill="url(#SVGID_17_)" d="M1443.2,1031.6c-26.8-7.2-80.5,11.1-47.3,86.8c33.2,75.7,69.9,116.5,69.9,116.5l-96.3,112
			c0,0,2.4,19.2,16.6,34.8c14.2,15.6,28.1,7.5,28.1,7.5s126.6-126.1,131.5-151.8C1550.7,1211.6,1443.2,1031.6,1443.2,1031.6z"/>
		<g>
			
				<linearGradient id="SVGID_18_" gradientUnits="userSpaceOnUse" x1="898.1277" y1="1051.9484" x2="798.6823" y2="1125.5333" gradientTransform="matrix(0.9975 -7.090000e-02 7.090000e-02 0.9975 413.1254 -94.6624)">
				<stop  offset="0" style="stop-color:#CE8074"/>
				<stop  offset="1" style="stop-color:#FCAB92"/>
			</linearGradient>
			<path fill="url(#SVGID_18_)" d="M1286.1,867.4c0,0-3.7,34.6-2.4,37.4s0.9,9.6,0.9,9.6s-3.4,5-3.8,15.1
				c-0.4,10.1,2.8,45.4,12.3,48.9c9.5,3.5,15.5,2.7,15.5,2.7l0.4,11.5c0,0,10,13.6,34.4,15.8c24.3,2.2,38.9-9.3,38.9-9.3
				s1.9-62.5,1.5-83.1c-0.4-20.5-54.6-51.7-54.6-51.7L1286.1,867.4z"/>
			
				<linearGradient id="SVGID_19_" gradientUnits="userSpaceOnUse" x1="915.3864" y1="1052.1244" x2="768.5104" y2="1052.1244" gradientTransform="matrix(0.9975 -7.090000e-02 7.090000e-02 0.9975 413.1254 -94.6624)">
				<stop  offset="0" style="stop-color:#303030"/>
				<stop  offset="1" style="stop-color:#727272"/>
			</linearGradient>
			<path fill="url(#SVGID_19_)" d="M1270.7,859.1c0.7,15.1,4.5,27.8,39.7,35.1c35.2,7.2,40.8,5,40.8,5s-15.4,22-6.4,31.9
				s-3,18.6,4.3,20.3c7.3,1.6,12-23.6,20-23.1c8,0.5-5.3,32.1,9,37.3c14.3,5.1,2.8-24.4,25-47.3c22.2-22.9,1.7-51.7,1.7-51.7
				s18.5-39.6-39.8-47C1306.7,812.2,1270.7,859.1,1270.7,859.1z"/>
			<path fill="#DF907F" d="M1308.6,981.1c0,0,18.1,0.4,30.6-3.9s16.4-9,16.4-9s-2.7,10.6-16.4,15.8c-13.7,5.2-18.9,8.6-18.9,8.6
				l-0.6,8.7l-10.7-8.7L1308.6,981.1z"/>
		</g>
		
			<linearGradient id="SVGID_20_" gradientUnits="userSpaceOnUse" x1="888.7938" y1="1533.785" x2="809.1436" y2="1592.7224" gradientTransform="matrix(0.9975 -7.090000e-02 7.090000e-02 0.9975 413.1254 -94.6624)">
			<stop  offset="0" style="stop-color:#CE8074"/>
			<stop  offset="1" style="stop-color:#FCAB92"/>
		</linearGradient>
		<path fill="url(#SVGID_20_)" d="M1374.8,1364.1c0,0-14.3,4.2-21.1,11.3s-9.5,14.3-9.5,14.3s-4.4,8.6,7.8,2.4
			c12.2-6.2,0.8,26.1-8.4,35.7c-9.2,9.6-14.1,19.4,7.2,21.4c21.3,2,43-17.4,52.5-34.6c9.6-17.1,8.1-24.3,8.1-24.3
			S1385,1382.8,1374.8,1364.1z"/>
		<g>
			<path fill="#B6C3CE" d="M988.8,1059.1l91.4,48.3c6.2,3.3,10.5,9.3,11.5,16.2l26.8,174.7c1.2,7.8-7,13.7-14.1,10l-92.9-49.1
				c-5.2-2.8-8.8-7.8-9.7-13.7l-27-176.5C973.6,1061.2,981.8,1055.4,988.8,1059.1z"/>
			<path fill="#F2F2F2" d="M985.3,1061.1l91.4,48.3c6.2,3.3,10.5,9.3,11.5,16.2l26.8,174.7c1.2,7.8-7,13.7-14.1,10l-92.9-49.1
				c-5.2-2.8-8.8-7.8-9.7-13.7l-27-176.5C970.1,1063.2,978.4,1057.4,985.3,1061.1z"/>
		</g>
		
			<linearGradient id="SVGID_21_" gradientUnits="userSpaceOnUse" x1="457.2623" y1="1300.9969" x2="542.0043" y2="1300.9969" gradientTransform="matrix(0.9975 -7.090000e-02 7.090000e-02 0.9975 413.1254 -94.6624)">
			<stop  offset="0" style="stop-color:#CE8074"/>
			<stop  offset="1" style="stop-color:#FCAB92"/>
		</linearGradient>
		<path fill="url(#SVGID_21_)" d="M978.6,1123c0,0-30.5,55.9-8.5,77.9c22,22.1,58.3,12,71.9-0.3c13.6-12.2,0-58.7-26.6-49.1
			C988.9,1161.1,978.6,1123,978.6,1123z"/>
	</g>
</g>
</svg>
